# xmcd CD database file
#
# Track frame offsets:
#	150
#	12227
#	21733
#	32873
#	42843
#	52317
#	61551
#	73272
#	86147
#	98122
#	108358
#	120898
#	132344
#	146173
#	161702
#	174123
#	188755
#	203198
#	217156
#	229130
#	242549
#	254606
#	269815
#
# Disc length: 3786 seconds
#
# Revision: 0
# Processed by: cddbd v1.4PL0 Copyright (c) Steve Scherf et al.
# Submitted via: CDex 1.40Release
#
DISCID=5b0ec817
DTITLE=Ernest Tubb - The Last Sessions
DYEAR=1997
DGENRE=Country
TTITLE0=A Month Of Sundays
TTITLE1=Sometimes I Do
TTITLE2=A Good Mind To Love Her Anyway
TTITLE3=Half My Heart's In Texas
TTITLE4=Walkin' The FloorOver You
TTITLE5=Jealous Loving Heart
TTITLE6=You're The Only Good Thing
TTITLE7=Papers and Pens
TTITLE8=Waltz Across Texas
TTITLE9=Set Up Two Glasses Joe
TTITLE10=You Nearly Lose Your Mind
TTITLE11=Answer The Phone
TTITLE12=Our Baby's Book
TTITLE13=Soldier's Last Letter
TTITLE14=Journey's End
TTITLE15=When The World Has Turned You Down
TTITLE16=Let's Say Goodbye Like We Said Hello
TTITLE17=Seaman's Blues
TTITLE18=Thanks A Lot
TTITLE19=Blue Eyed Elaine
TTITLE20=Half A Mind
TTITLE21=Rainbow At Midnight
TTITLE22=Filipino Baby
EXTD=YEAR: 1997 ID3G: 2
EXTT0=
EXTT1=
EXTT2=
EXTT3=
EXTT4=
EXTT5=
EXTT6=
EXTT7=
EXTT8=
EXTT9=
EXTT10=
EXTT11=
EXTT12=
EXTT13=
EXTT14=
EXTT15=
EXTT16=
EXTT17=
EXTT18=
EXTT19=
EXTT20=
EXTT21=
EXTT22=
PLAYORDER=
